# xmcd CD database file
#
# Track frame offsets:
#	150
#	14048
#	28571
#	40166
#	58105
#	76161
#	98224
#	112344
#	123768
#	141198
#	160801
#	175167
#	198945
#
# Disc length: 2915 seconds
#
# Revision: 0
# Processed by: cddbd v1.5.2PL0 Copyright (c) Steve Scherf et al.
# Submitted via: CDex 1.51
#
DISCID=ab0b610d
DTITLE=1700 - Balance - Introducing
DYEAR=2007
DGENRE=Country
TTITLE0=One and only lover
TTITLE1=The losing side of me
TTITLE2=Mi vida loca
TTITLE3=Broken souvenirs
TTITLE4=Your cheating heart
TTITLE5=Kupu kupu
TTITLE6=There's a guy
TTITLE7=If the jukebox
TTITLE8=Guitar boogie
TTITLE9=Blue bayou
TTITLE10=There goes my heart
TTITLE11=Rock and roll medley
TTITLE12=Save the last dance for me
EXTD=YEAR: 2007
EXTT0=
EXTT1=
EXTT2=
EXTT3=
EXTT4=
EXTT5=
EXTT6=
EXTT7=
EXTT8=
EXTT9=
EXTT10=
EXTT11=
EXTT12=
PLAYORDER=
